<svg width="247" height="247" viewBox="0 0 247 247" fill="none" xmlns="http://www.w3.org/2000/svg">
<path d="M26.0963 118.454C28.8101 65.4122 73.5936 24.1664 126.87 26.0268C180.685 27.9061 222.787 73.0553 220.908 126.87L220.839 128.481C218.125 181.523 173.342 222.769 120.065 220.908C66.25 219.029 24.1477 173.88 26.027 120.065L26.0963 118.454ZM161.085 125.324C160.136 123.542 157.613 123.456 156.543 125.167L132.038 164.363C130.969 166.076 132.153 168.303 134.173 168.374L180.436 169.989C182.458 170.06 183.794 167.919 182.843 166.135L161.085 125.324ZM127.069 61.3728C126.12 59.5893 123.598 59.5012 122.527 61.2141L59.6303 161.835C58.5617 163.546 59.7456 165.773 61.7652 165.843L103.728 167.309C104.666 167.341 105.549 166.873 106.046 166.079L146.718 101.066C147.217 100.271 147.252 99.2729 146.81 98.4455L127.069 61.3728Z" fill="white"/>
</svg>
