<svg width="60" height="48" viewBox="0 0 60 48" fill="none" xmlns="http://www.w3.org/2000/svg">
<path d="M20.7827 22.6713C26.8494 22.6713 31.7786 17.6158 31.7786 11.3935C31.7786 5.17128 26.8494 0.115723 20.7827 0.115723C14.716 0.115723 9.78687 5.17128 9.78687 11.3935C9.78687 17.6158 14.716 22.6713 20.7827 22.6713Z" fill="white"/>
<path d="M42.1331 40.2917V45.437C42.1331 46.6634 41.1706 47.6805 39.9456 47.6805H3.02051C1.82468 47.6805 0.833008 46.6634 0.833008 45.437V40.2917C0.833008 33.0823 6.54967 27.219 13.5788 27.219H29.3872C30.8163 27.219 32.1872 27.4583 33.4705 27.9369C33.4705 27.9369 33.4705 27.907 33.4997 27.9369C38.5164 29.672 42.1331 34.5481 42.1331 40.2917Z" fill="white"/>
<path d="M42.1331 40.2917V45.437C42.1331 46.6634 41.1706 47.6805 39.9456 47.6805H3.02051C1.82468 47.6805 0.833008 46.6634 0.833008 45.437V40.2917C0.833008 33.0823 6.54967 27.219 13.5788 27.219H29.3872C30.8163 27.219 32.1872 27.4583 33.4705 27.9369C33.4705 27.9369 33.4705 27.907 33.4997 27.9369C38.5164 29.672 42.1331 34.5481 42.1331 40.2917Z" fill="white"/>
<path d="M59.1661 37.7194V41.9373C59.1661 42.9245 58.3786 43.7322 57.4161 43.7322H46.5079V40.292C46.5079 37.2707 45.7495 34.3989 44.437 31.916C43.8829 30.8989 43.2704 29.9416 42.5704 29.0741C42.0746 28.5057 41.5787 27.9374 41.0537 27.4587H49.162C49.4829 27.4587 49.7745 27.4587 50.0662 27.5186C50.4454 27.5485 50.8245 27.6083 51.2037 27.698C53.4203 28.1767 55.3453 29.4331 56.7745 31.1083C57.0078 31.3775 57.2412 31.6767 57.4453 32.0057C57.4745 32.0057 57.4745 32.0057 57.4453 32.0356C57.9995 32.8732 58.437 33.7707 58.7287 34.7578C58.8162 35.0869 58.9036 35.416 58.962 35.745C59.1078 36.3732 59.1661 37.0314 59.1661 37.7194Z" fill="white"/>
<path d="M42.7748 22.2529C47.5912 22.2529 51.4956 18.2483 51.4956 13.3084C51.4956 8.36857 47.5912 4.36401 42.7748 4.36401C37.9584 4.36401 34.054 8.36857 34.054 13.3084C34.054 18.2483 37.9584 22.2529 42.7748 22.2529Z" fill="white"/>
</svg>
