<?xml version="1.0" encoding="UTF-8"?>
<svg width="709px" height="714px" viewBox="0 0 709 714" version="1.1" xmlns="http://www.w3.org/2000/svg" xmlns:xlink="http://www.w3.org/1999/xlink">
    <g id="页面-1" stroke="none" stroke-width="1" fill="none" fill-rule="evenodd" opacity="0.249477653">
        <g id="编组-14" transform="translate(-2825.000000, -953.000000)" fill-rule="nonzero">
            <g id="编组-16" transform="translate(2825.182260, 953.419914)">
                <g id="逻辑思维" transform="translate(353.952393, 356.715892) rotate(20.000000) translate(-353.952393, -356.715892) translate(79.030444, 77.170175)">
                    <path d="M517.610826,319.943642 C506.462016,319.943642 497.488584,310.962585 497.488584,299.804301 C497.760507,223.601389 458.331791,152.841542 393.34239,113.107166 C383.553191,107.664101 380.290125,95.4172041 385.728569,85.6196868 C391.167012,75.8221695 403.40351,72.5563304 413.192709,77.9993955 C413.736553,78.2715488 414.280398,78.5437021 414.55232,78.8158553 C491.506296,125.898369 538.004989,209.449419 537.734253,299.804301 C537.734253,310.690431 528.759635,319.943642 517.610826,319.943642 L517.610826,319.943642 Z" id="路径" fill="#DC8E8E"></path>
                    <path d="M532.975303,378.378217 C507.381474,347.344044 461.639314,343.2606 430.59999,368.850182 L376.689586,330.19358 C379.956883,319.576626 381.862807,308.415213 381.862807,297.2538 C381.862807,245.257949 344.833438,200.612297 293.918057,190.812032 L293.918057,137.999492 C316.789137,131.193752 334.486997,113.2266 341.293866,90.6315438 C352.457132,53.3360904 331.2197,14.1350299 293.918057,2.97361686 C256.344139,-8.1877962 217.136572,13.0461116 205.973307,50.341565 C194.810042,87.6370183 216.047473,126.838079 253.349116,137.999492 L253.349116,191.084261 C248.99272,191.90095 244.636324,192.989868 240.552202,194.351016 C183.646776,212.590399 152.062903,273.297597 170.305312,330.19358 L116.122634,368.850182 C97.6079495,353.605325 72.2863962,348.977422 49.4153157,356.055391 C12.1136726,368.033493 -8.57920975,408.051242 3.40088002,445.346695 C15.3809698,482.642149 55.4053606,503.603827 92.7070037,491.625725 C130.008647,479.647623 150.701529,439.629874 138.721439,402.334421 L189.364546,366.127886 C193.993217,371.844707 199.166438,376.74484 204.611933,381.372742 C250.898644,419.212655 319.23961,412.406915 357.085803,366.127886 L407.72891,402.334421 C399.832941,426.018395 405.006162,452.152435 420.798098,471.480736 C446.391927,502.514909 492.134088,506.598352 523.173411,481.008771 C554.485009,455.146961 558.841406,409.41239 532.975303,378.378217 Z M72.0141214,453.785813 C55.4053606,453.785813 41.7916222,440.174333 41.7916222,423.568328 C41.7916222,406.962324 55.4053606,393.350844 72.0141214,393.350844 C88.6228822,393.350844 102.236621,406.962324 102.236621,423.568328 C102.236621,440.174333 88.6228822,453.785813 72.0141214,453.785813 Z M243.27495,70.758784 C243.27495,54.1527792 256.888688,40.5412998 273.497449,40.5412998 C290.10621,40.5412998 303.719948,54.1527792 303.719948,70.758784 C303.719948,87.3647888 290.10621,100.976268 273.497449,100.976268 C256.888688,100.976268 243.27495,87.3647888 243.27495,70.758784 Z M273.497449,365.583426 C235.923531,365.583426 205.428757,335.093713 205.428757,297.52603 C205.428757,259.958347 235.923531,229.468633 273.497449,229.468633 C311.071367,229.468633 341.566141,259.958347 341.566141,297.52603 C341.566141,335.093713 311.071367,365.583426 273.497449,365.583426 Z M474.980777,453.785813 C458.372016,453.785813 444.758278,440.174333 444.758278,423.568328 C444.758278,406.962324 458.372016,393.350844 474.980777,393.350844 C491.589538,393.350844 505.203276,406.962324 505.203276,423.568328 C505.203276,440.174333 491.589538,453.785813 474.980777,453.785813 Z" id="形状" fill="#E84141"></path>
                    <path d="M158.61703,116.772571 C96.4979689,157.048312 58.89959,226.170191 58.89959,300.190471 C58.89959,311.34794 49.9086734,320.328341 38.7381405,320.328341 C27.5676077,320.328341 18.576691,311.34794 18.576691,300.190471 C18.576691,212.563522 62.7139183,130.923507 136.275964,83.0280319 C145.539333,77.0410975 158.072125,79.4902979 164.338522,88.7428329 C170.604918,97.9953679 168.15285,110.513503 158.61703,116.772571 Z M159.161934,483.880504 C159.97929,484.424771 161.069098,484.969038 161.886454,485.513304 C232.996431,528.782512 322.360694,528.782512 393.470671,485.513304 C403.278944,480.070637 415.539285,483.608371 420.988325,493.133039 C426.164914,502.385574 423.440393,513.815176 414.721929,519.529977 C330.806706,572.323853 224.277966,572.323853 140.362744,519.257844 C130.554471,514.08731 126.740143,501.841307 131.916732,492.044506 C137.09332,482.519837 149.353661,478.70997 159.161934,483.880504 Z" id="形状" fill="#DC8E8E"></path>
                </g>
                <g id="编组-13" transform="translate(226.834018, 253.791450)">
                    <path d="M26.8872386,122.29133 L26.8872386,122.291344 C26.8827362,174.984213 69.6039609,217.69673 122.30758,217.69222 C175.011199,217.687702 217.739744,174.967879 217.744254,122.275011 L217.744254,122.275011 C217.748765,69.5821425 175.027532,26.8696248 122.323913,26.8741352 C69.6202944,26.8786456 26.891749,69.598476 26.8872386,122.291344 L26.8872386,122.29133 Z" id="路径" fill="#E84141" transform="translate(122.315747, 122.283178) rotate(20.000000) translate(-122.315747, -122.283178) "></path>
                    <path d="M144.798426,96.5622464 L107.234265,161.529461 L107.234265,161.529461 C106.775355,162.323423 105.926881,162.811136 105.009061,162.811136 L63.9110048,162.811136 C61.9330463,162.811136 60.6989536,160.673592 61.6858015,158.963985 L119.773414,58.4164958 C120.762393,56.7047592 123.23271,56.7047592 124.221689,58.4164958 L144.798426,93.9967706 C145.258813,94.7908971 145.258813,95.7681198 144.798426,96.5622463 L144.798426,96.5622464 Z M180.135252,162.813263 L134.825508,162.813263 C132.847549,162.813263 131.613456,160.675721 132.600304,158.963985 L155.231731,119.796302 C156.22071,118.086695 158.691027,118.084566 159.680006,119.794173 L182.358324,158.961856 C183.349434,160.673592 182.115342,162.813263 180.135252,162.813263 L180.135252,162.813263 Z" id="形状" fill="#FFFFFF" transform="translate(122.023250, 109.972978) rotate(20.000000) translate(-122.023250, -109.972978) "></path>
                </g>
            </g>
        </g>
    </g>
</svg>