<svg width="70" height="72" viewBox="0 0 70 72" fill="none" xmlns="http://www.w3.org/2000/svg">
<path d="M62.6202 32.009C62.5911 32.009 62.5911 32.009 62.6202 32.009L57.3119 26.5945V18.6671C57.3119 15.556 54.8327 13.0133 51.7702 13.0133H44.0702L38.7619 7.56883C36.7494 5.50473 33.2494 5.50473 31.2369 7.56883L25.9286 13.0133H18.2286C15.1661 13.0133 12.687 15.556 12.687 18.6671V26.5945L7.37861 32.009C5.30778 34.1629 5.30776 37.633 7.40776 39.7569L12.687 45.1715V53.0988C12.687 56.2398 15.1661 58.7826 18.2286 58.7826H25.9286L31.2369 64.1971C32.2286 65.2441 33.5702 65.8125 34.9994 65.8125C36.4286 65.8125 37.7702 65.2441 38.7619 64.1971L44.0702 58.7826H51.7702C54.8327 58.7826 57.3119 56.2398 57.3119 53.0988V45.1715L62.6202 39.7569C64.6911 37.633 64.6911 34.1629 62.6202 32.009ZM44.0994 48.8509C42.0869 48.8509 40.4244 47.1458 40.4244 45.0518C40.4244 42.9877 42.0869 41.2826 44.0994 41.2826C46.1411 41.2826 47.8036 42.9877 47.8036 45.0518C47.8036 47.1458 46.1411 48.8509 44.0994 48.8509ZM26.1619 22.8552C28.1744 22.8552 29.8369 24.5603 29.8369 26.6543C29.8369 28.7184 28.1744 30.4236 26.1619 30.4236C24.1203 30.4236 22.4578 28.7184 22.4578 26.6543C22.4578 24.5603 24.1203 22.8552 26.1619 22.8552ZM26.3369 41.5817L40.5703 27.0133C41.4161 26.1458 42.7869 26.1458 43.6619 27.0133C44.5077 27.8808 44.5077 29.3167 43.6619 30.1842L29.4286 44.7526C29.0202 45.2014 28.4661 45.4108 27.8827 45.4108C27.3286 45.4108 26.7744 45.2014 26.3369 44.7526C25.4911 43.8851 25.4911 42.4492 26.3369 41.5817Z" fill="white"/>
</svg>
