<svg width="241" height="249" viewBox="0 0 241 249" fill="none" xmlns="http://www.w3.org/2000/svg">
<path d="M182.996 169.888C179.87 168.365 178.524 164.509 179.978 161.241C189.982 138.96 188.146 112.85 175.102 92.3337C173.067 89.4022 173.748 85.3696 176.549 83.2432C179.35 81.1167 183.206 81.8319 185.241 84.7634C185.358 84.9174 185.475 85.0714 185.516 85.1883C200.957 109.491 203.108 140.313 191.261 166.739C189.843 169.927 186.121 171.411 182.996 169.888Z" fill="#E60012"/>
<path d="M179.731 189.109C176.6 176.525 164.314 169.08 152.284 172.334L142.21 153.648C144.508 150.985 146.496 147.977 147.949 144.708C154.72 129.481 150.157 111.348 137.165 101.522L144.043 86.056C151.338 87.1873 158.637 84.3432 163.487 78.656C171.472 69.2588 170.625 54.8774 161.626 46.513C152.55 38.1114 138.798 38.9738 130.813 48.371C122.828 57.7681 123.675 72.1496 132.674 80.514L125.761 96.0601C124.434 95.7042 123.072 95.4279 121.75 95.2686C103.428 92.8364 86.6724 106.3 84.3755 125.455L64.1582 129.373C60.955 122.38 54.4618 117.565 47.131 116.514C35.1183 114.926 24.1085 123.818 22.6091 136.377C21.1096 148.936 29.596 160.542 41.6087 162.13C53.6215 163.718 64.6313 154.825 66.1307 142.267L85.0371 138.582C85.5898 140.888 86.4014 143.03 87.3247 145.129C95.3681 162.534 115.405 169.877 132.037 161.494L141.514 179.015C136.217 184.873 134.264 193.233 136.172 201.051C139.303 213.635 151.59 221.08 163.62 217.826C175.762 214.53 182.938 201.731 179.731 189.109ZM40.7375 148.222C36.0832 145.953 34.0408 140.107 36.2032 135.244C38.3656 130.381 43.953 128.254 48.6073 130.523C53.2615 132.792 55.304 138.638 53.1416 143.501C50.9792 148.364 45.3917 150.491 40.7375 148.222ZM138.607 59.446C140.769 54.5828 146.357 52.4564 151.011 54.7253C155.665 56.9942 157.708 62.8401 155.545 67.7033C153.383 72.5664 147.796 74.6928 143.141 72.424C138.487 70.1551 136.445 64.3091 138.607 59.446ZM108.684 149.916C98.1552 144.783 93.58 131.688 98.472 120.686C103.364 109.684 115.88 104.921 126.409 110.054C136.938 115.187 141.514 128.281 136.622 139.283C131.73 150.285 119.214 155.048 108.684 149.916ZM153.66 203.27C149.006 201.001 146.963 195.156 149.126 190.292C151.288 185.429 156.876 183.303 161.53 185.572C166.184 187.841 168.227 193.687 166.064 198.55C163.902 203.413 158.314 205.539 153.66 203.27Z" fill="#E84141"/>
<path d="M108.886 61.3611C86.2291 64.6701 66.6877 79.7771 57.0467 101.455C55.5935 104.723 51.9038 106.124 48.7728 104.598C45.6418 103.072 44.2914 99.214 45.7447 95.9464C57.1579 70.2835 80.1624 52.4038 107.019 48.4264C110.396 47.9385 113.589 50.3679 114.141 53.9338C114.692 57.4996 112.374 60.8307 108.886 61.3611ZM61.224 168.949C61.3822 169.22 61.6168 169.528 61.775 169.799C76.0707 192.185 101.118 204.394 126.686 201.436C130.144 201.182 133.119 203.893 133.406 207.427C133.652 210.844 131.399 213.819 128.211 214.302C97.8147 218.299 67.9558 203.746 51.347 176.741C49.2713 173.887 49.7972 169.779 52.5242 167.617C55.2157 165.535 59.1483 166.094 61.224 168.949Z" fill="#E60012"/>
<path d="M91.6308 118.086L91.6308 118.086C84.715 133.578 91.0388 151.923 105.756 159.063C120.472 166.202 138.01 159.431 144.925 143.94C151.841 128.448 145.517 110.102 130.801 102.963C116.084 95.8233 98.5466 102.594 91.6308 118.086L91.6308 118.086Z" fill="#E84141"/>
<path d="M126.641 126.183L107.621 140.2C107.388 140.372 107.087 140.4 106.831 140.276L95.3526 134.707C94.8002 134.439 94.7361 133.643 95.2362 133.274L124.66 111.573C125.16 111.203 125.85 111.538 125.902 112.176L126.978 125.429C127.002 125.724 126.874 126.012 126.641 126.183ZM127.813 150.457L115.158 144.317C114.606 144.049 114.542 143.253 115.042 142.883L126.505 134.43C127.005 134.062 127.696 134.396 127.747 135.033L128.939 149.625C128.991 150.263 128.366 150.725 127.813 150.457Z" fill="white"/>
</svg>
